#N canvas -8 -8 1600 1117 10;
#X obj 314 166 sendOSC;
#X msg 20 -108 disconnect;
#X text 9 -463 === MIDI to OSC Conversion ===;
#X floatatom 353 201 5 0 0 0 - - -;
#X floatatom 314 201 5 0 0 0 - - -;
#X obj 31 -358 vradio 15 1 0 2 empty empty empty 0 -8 0 10 -262144
-1 -1 0;
#X obj 59 -280 select 0;
#X text 50 -360 remote;
#X text 50 -345 local;
#X text 30 -127 Disconnect first;
#X obj 368 -55 vsl 30 80 0.01 1 1 1 empty empty empty 0 -9 0 10 -257985
-1 -1 0 1;
#X floatatom 321 -335 5 0 0 0 - - -;
#X obj 854 -435 notein;
#X obj 791 -293 stripnote;
#X floatatom 820 -379 5 0 0 0 - - -;
#X floatatom 870 -378 5 0 0 0 - - -;
#X floatatom 921 -379 5 0 0 0 - - -;
#X floatatom 784 -246 5 0 0 0 - - -;
#X text 932 -367 chan;
#X text 890 -366 vel;
#X text 900 -438 midi note comes in;
#X text 835 -368 note;
#X msg 263 -148 send /eos/sub/\$2 \$1;
#X obj 305 -375 ctlin;
#X msg 361 61 send /eos/sub/1 \$1;
#X floatatom 280 -335 5 0 0 0 - - -;
#X text 324 -350 ctl;
#X text 284 -351 val;
#X text 223 -290 val> 100;
#X floatatom 360 -335 5 0 0 0 - - -;
#X text 365 -350 chan;
#X obj 350 -291 + 1;
#X text 356 -377 midi ctl comes in;
#X obj 312 -116 print;
#X obj 296 -215 pack;
#X obj 721 78 print;
#X msg 667 42 send /eos/key/\$1;
#X text 958 -379 pull apart array - we listen to any channel;
#X obj 684 -178 bng 15 250 50 0 empty empty empty 17 7 0 10 -262144
-1 -1;
#X obj 788 -148 bng 15 250 50 0 empty empty empty 17 7 0 10 -262144
-1 -1;
#X msg 434 -12 0;
#X text 367 -82 test fader sub 1;
#X text 410 -31 set to 0;
#X obj 796 -133 symbol stop;
#X obj 791 -101 bng 15 250 50 0 empty empty empty 17 7 0 10 -262144
-1 -1;
#X obj 759 -201 select 103 104 105 106 107 108;
#X obj 847 -79 bng 15 250 50 0 empty empty empty 17 7 0 10 -262144
-1 -1;
#X obj 856 -65 symbol;
#X text 411 -343 pull apart array - we listen to any channel;
#X text 397 -291 midi 0 = sub 1;
#X text 340 -216 concatenate the val and ctl;
#X text 388 -150 run sub (ctl+1) to level (val/1.27);
#X text 6 -447 This patch converts MIDI notes and controllers to an
OSC message in the format for ETC Eos consoles. The Korg nanoKontrol2
mapped for native Cobalt console control is assumed.;
#X obj 278 -291 / 127;
#X text 776 40 sends appropriate key;
#X text 887 -96 not yet implemented;
#X text 905 -67 not yet implemented;
#X obj 1271 -412 select 20 21 22 23 24 25 26 27;
#X text 953 -201 transport buttons;
#X text 856 -298 only outputs down stroke;
#X text 854 -288 (ignores vel 0);
#X text 1123 -113 midi 20 = sub bump 1;
#X floatatom 1069 -32 5 0 0 0 - - -;
#X obj 1091 -109 - 19;
#X obj 1267 -112 / 127;
#X text 1310 -112 val> 0 or 1;
#X text 1238 123 sends appropriate key;
#X obj 1096 179 print;
#X floatatom 964 -173 5 0 0 0 - - -;
#X obj 1071 37 pack;
#X text 1115 36 concatenate the val and ctl;
#X msg 1056 123 send /eos/sub/\$1/fire \$2.0;
#X floatatom 1146 -31 5 0 0 0 - - -;
#X obj 776 -171 symbol Go_0;
#X text 662 -270 103 GO 104 105 STOP 106 107 SHIFT-BACK 108 SHIFT-GO
;
#X obj 764 -53 symbol shift_stop;
#X msg 94 -233 connect 10.101.88.101 8000;
#X connect 0 0 4 0;
#X connect 0 1 3 0;
#X connect 1 0 0 0;
#X connect 5 0 1 0;
#X connect 5 0 6 0;
#X connect 6 0 76 0;
#X connect 10 0 24 0;
#X connect 11 0 31 0;
#X connect 12 0 14 0;
#X connect 12 1 15 0;
#X connect 12 2 16 0;
#X connect 13 0 17 0;
#X connect 14 0 13 0;
#X connect 15 0 13 1;
#X connect 15 0 64 0;
#X connect 17 0 45 0;
#X connect 22 0 0 0;
#X connect 22 0 33 0;
#X connect 23 0 25 0;
#X connect 23 1 11 0;
#X connect 23 2 29 0;
#X connect 24 0 0 0;
#X connect 25 0 53 0;
#X connect 31 0 34 1;
#X connect 34 0 22 0;
#X connect 36 0 35 0;
#X connect 36 0 0 0;
#X connect 38 0 73 0;
#X connect 39 0 43 0;
#X connect 40 0 24 0;
#X connect 43 0 36 0;
#X connect 44 0 75 0;
#X connect 45 0 73 0;
#X connect 45 2 43 0;
#X connect 45 4 75 0;
#X connect 45 5 47 0;
#X connect 45 6 68 0;
#X connect 46 0 47 0;
#X connect 47 0 36 0;
#X connect 53 0 34 0;
#X connect 62 0 69 0;
#X connect 63 0 62 0;
#X connect 64 0 72 0;
#X connect 68 0 63 0;
#X connect 69 0 71 0;
#X connect 71 0 0 0;
#X connect 71 0 67 0;
#X connect 72 0 69 1;
#X connect 73 0 36 0;
#X connect 75 0 36 0;
#X connect 76 0 0 0;
